REM DIRINDEX 1\2\5,1\2\6,1\2\7,1\2\8,1\3\9,1\3\10,1\3\11,1\4\12,1\4\13,1\4\14,1\4\15,1\4\16
REM DIRNAME folder01,folder02,folder03,folder04,folder05,folder06,folder07,folder08,folder09,folder10,folder11,folder12,folder13,folder14,folder15,folder16
TITLE ""
FILE "1200_sec03_0711_0719.mp3" MP3
  TRACK 01 AUDIO
    TITLE "0:"
    INDEX 01 00:00:00
  TRACK 02 AUDIO
    TITLE "12:cjc034_06502"
    INDEX 01 00:00:17
  TRACK 03 AUDIO
    TITLE "0:"
    INDEX 01 00:01:24
  TRACK 04 AUDIO
    TITLE "13:cjc034_06503"
    INDEX 01 00:01:56
  TRACK 05 AUDIO
    TITLE "0:"
    INDEX 01 00:02:61
  TRACK 06 AUDIO
    TITLE "14:cjc034_06504"
    INDEX 01 00:03:15
  TRACK 07 AUDIO
    TITLE "0:"
    INDEX 01 00:04:21
  TRACK 08 AUDIO
    TITLE "15:cjc034_06505"
    INDEX 01 00:04:58
  TRACK 09 AUDIO
    TITLE "0:"
    INDEX 01 00:08:21
  TRACK 10 AUDIO
    TITLE "12:cjc034_06506"
    INDEX 01 00:09:55
  TRACK 11 AUDIO
    TITLE "0:"
    INDEX 01 00:10:70
  TRACK 12 AUDIO
    TITLE "13:cjc034_06507"
    INDEX 01 00:11:29
  TRACK 13 AUDIO
    TITLE "0:"
    INDEX 01 00:12:32
  TRACK 14 AUDIO
    TITLE "14:cjc034_06508"
    INDEX 01 00:12:61
  TRACK 15 AUDIO
    TITLE "0:"
    INDEX 01 00:14:02
  TRACK 16 AUDIO
    TITLE "15:cjc034_06509"
    INDEX 01 00:14:37
  TRACK 17 AUDIO
    TITLE "0:"
    INDEX 01 00:18:68
  TRACK 18 AUDIO
    TITLE "12:cjc034_06510"
    INDEX 01 00:20:26
  TRACK 19 AUDIO
    TITLE "0:"
    INDEX 01 00:21:51
  TRACK 20 AUDIO
    TITLE "13:cjc034_06511"
    INDEX 01 00:22:11
  TRACK 21 AUDIO
    TITLE "0:"
    INDEX 01 00:24:45
  TRACK 22 AUDIO
    TITLE "14:cjc034_06512"
    INDEX 01 00:25:03
  TRACK 23 AUDIO
    TITLE "0:"
    INDEX 01 00:26:30
  TRACK 24 AUDIO
    TITLE "15:cjc034_06513"
    INDEX 01 00:26:67
  TRACK 25 AUDIO
    TITLE "0:"
    INDEX 01 00:30:24
  TRACK 26 AUDIO
    TITLE "12:cjc034_06514"
    INDEX 01 00:31:57
  TRACK 27 AUDIO
    TITLE "0:"
    INDEX 01 00:32:72
  TRACK 28 AUDIO
    TITLE "13:cjc034_06515"
    INDEX 01 00:33:30
  TRACK 29 AUDIO
    TITLE "0:"
    INDEX 01 00:35:57
  TRACK 30 AUDIO
    TITLE "14:cjc034_06516"
    INDEX 01 00:36:15
  TRACK 31 AUDIO
    TITLE "0:"
    INDEX 01 00:37:30
  TRACK 32 AUDIO
    TITLE "15:cjc034_06517"
    INDEX 01 00:37:63
  TRACK 33 AUDIO
    TITLE "0:"
    INDEX 01 00:41:08
  TRACK 34 AUDIO
    TITLE "16:cjc034_06518"
    INDEX 01 00:42:41
  TRACK 35 AUDIO
    TITLE "0:"
    INDEX 01 00:47:50
  TRACK 36 AUDIO
    TITLE "12:cjc034_06519"
    INDEX 01 00:48:57
  TRACK 37 AUDIO
    TITLE "0:"
    INDEX 01 00:50:01
  TRACK 38 AUDIO
    TITLE "13:cjc034_06520"
    INDEX 01 00:50:35
  TRACK 39 AUDIO
    TITLE "0:"
    INDEX 01 00:51:54
  TRACK 40 AUDIO
    TITLE "14:cjc034_06521"
    INDEX 01 00:52:20
  TRACK 41 AUDIO
    TITLE "0:"
    INDEX 01 00:53:37
  TRACK 42 AUDIO
    TITLE "15:cjc034_06522"
    INDEX 01 00:53:70
  TRACK 43 AUDIO
    TITLE "0:"
    INDEX 01 00:58:09
  TRACK 44 AUDIO
    TITLE "12:cjc034_06523"
    INDEX 01 00:59:47
  TRACK 45 AUDIO
    TITLE "0:"
    INDEX 01 01:00:72
  TRACK 46 AUDIO
    TITLE "13:cjc034_06524"
    INDEX 01 01:01:31
  TRACK 47 AUDIO
    TITLE "0:"
    INDEX 01 01:04:13
  TRACK 48 AUDIO
    TITLE "14:cjc034_06525"
    INDEX 01 01:04:50
  TRACK 49 AUDIO
    TITLE "0:"
    INDEX 01 01:05:73
  TRACK 50 AUDIO
    TITLE "15:cjc034_06526"
    INDEX 01 01:06:34
  TRACK 51 AUDIO
    TITLE "0:"
    INDEX 01 01:11:60
  TRACK 52 AUDIO
    TITLE "12:cjc034_06527"
    INDEX 01 01:13:22
  TRACK 53 AUDIO
    TITLE "0:"
    INDEX 01 01:14:35
  TRACK 54 AUDIO
    TITLE "13:cjc034_06528"
    INDEX 01 01:14:66
  TRACK 55 AUDIO
    TITLE "0:"
    INDEX 01 01:18:02
  TRACK 56 AUDIO
    TITLE "14:cjc034_06529"
    INDEX 01 01:18:39
  TRACK 57 AUDIO
    TITLE "0:"
    INDEX 01 01:19:54
  TRACK 58 AUDIO
    TITLE "15:cjc034_06530"
    INDEX 01 01:20:10
  TRACK 59 AUDIO
    TITLE "0:"
    INDEX 01 01:24:20
  TRACK 60 AUDIO
    TITLE "12:cjc034_06531"
    INDEX 01 01:25:57
  TRACK 61 AUDIO
    TITLE "0:"
    INDEX 01 01:26:70
  TRACK 62 AUDIO
    TITLE "13:cjc034_06532"
    INDEX 01 01:27:30
  TRACK 63 AUDIO
    TITLE "0:"
    INDEX 01 01:30:13
  TRACK 64 AUDIO
    TITLE "14:cjc034_06533"
    INDEX 01 01:30:52
  TRACK 65 AUDIO
    TITLE "0:"
    INDEX 01 01:31:67
  TRACK 66 AUDIO
    TITLE "15:cjc034_06534"
    INDEX 01 01:32:25
  TRACK 67 AUDIO
    TITLE "0:"
    INDEX 01 01:36:17
  TRACK 68 AUDIO
    TITLE "12:cjc034_06535"
    INDEX 01 01:37:52
  TRACK 69 AUDIO
    TITLE "0:"
    INDEX 01 01:38:55
  TRACK 70 AUDIO
    TITLE "13:cjc034_06536"
    INDEX 01 01:39:14
  TRACK 71 AUDIO
    TITLE "0:"
    INDEX 01 01:40:15
  TRACK 72 AUDIO
    TITLE "14:cjc034_06537"
    INDEX 01 01:40:44
  TRACK 73 AUDIO
    TITLE "0:"
    INDEX 01 01:41:48
  TRACK 74 AUDIO
    TITLE "15:cjc034_06538"
    INDEX 01 01:42:08
  TRACK 75 AUDIO
    TITLE "0:"
    INDEX 01 01:45:22
